<svg width="32" height="32" viewBox="0 0 32 32" fill="none" xmlns="http://www.w3.org/2000/svg">
<g clip-path="url(#clip0_27_18)">
<path d="M20.8778 14.7569C20.3516 14.7569 19.9452 14.9083 19.6568 15.2058C19.3663 15.5026 19.1854 15.9066 19.1113 16.4176H22.6379C22.5996 15.8735 22.418 15.4619 22.091 15.1805C21.7664 14.8985 21.3611 14.7569 20.8778 14.7569Z" fill="white"/>
<path d="M13.1885 14.5556C13.4843 14.3755 13.6318 14.0551 13.6318 13.595C13.6318 13.0867 13.4365 12.7492 13.0448 12.5869C12.7083 12.4741 12.2774 12.4158 11.7551 12.4158H9.72131V14.8265H12.0336C12.5085 14.8265 12.8928 14.7362 13.1885 14.5556Z" fill="white"/>
<path d="M13.1593 16.8209C12.9005 16.7011 12.5352 16.64 12.0666 16.6357H9.72095V19.548H12.0301C12.5046 19.548 12.8717 19.4858 13.1369 19.3562C13.6149 19.118 13.8545 18.6646 13.8545 17.9916C13.8545 17.424 13.6223 17.0316 13.1593 16.8209Z" fill="white"/>
<path d="M15.982 0.175823C7.25241 0.175823 0.175781 7.25246 0.175781 15.9821C0.175781 24.7117 7.25241 31.7883 15.982 31.7883C24.7116 31.7883 31.7883 24.7117 31.7883 15.9821C31.7883 7.25246 24.7116 0.175823 15.982 0.175823ZM18.6603 10.9715H23.0611V12.0646H18.6603V10.9715ZM15.6712 19.8911C15.4643 20.2311 15.2072 20.5181 14.8981 20.7496C14.5503 21.0169 14.1383 21.2002 13.6648 21.2982C13.1899 21.3962 12.6757 21.4458 12.1218 21.4458H7.20078V10.5184H12.4783C13.8085 10.5402 14.7516 10.9255 15.3087 11.6824C15.6427 12.1468 15.8085 12.7035 15.8085 13.3512C15.8085 14.0193 15.641 14.5539 15.3034 14.9599C15.1158 15.1875 14.8384 15.3948 14.4713 15.5816C15.0273 15.785 15.4492 16.1057 15.7312 16.5469C16.015 16.9866 16.157 17.5205 16.157 18.1475C16.1566 18.7959 15.9968 19.3776 15.6712 19.8911ZM24.7612 17.7678H19.0621C19.0934 18.5546 19.3653 19.1047 19.8802 19.4194C20.1907 19.6168 20.5672 19.7134 21.0084 19.7134C21.4735 19.7134 21.8525 19.5957 22.144 19.3541C22.3031 19.2259 22.4433 19.0453 22.5645 18.817H24.6533C24.5985 19.2817 24.347 19.7527 23.895 20.2318C23.1946 20.993 22.2125 21.3745 20.9512 21.3745C19.909 21.3745 18.9908 21.0527 18.1939 20.4113C17.3993 19.7678 17.0003 18.7239 17.0003 17.2757C17.0003 15.9178 17.3586 14.8784 18.0772 14.1549C18.7987 13.4299 19.7299 13.0692 20.8774 13.0692C21.5578 13.0692 22.1711 13.1907 22.718 13.4352C23.2634 13.68 23.7141 14.065 24.0692 14.5943C24.3906 15.0604 24.5971 15.5996 24.6934 16.2132C24.7468 16.5711 24.771 17.0899 24.7612 17.7678Z" fill="white"/>
</g>
<defs>
<clipPath id="clip0_27_18">
<rect width="32" height="32" fill="white"/>
</clipPath>
</defs>
</svg>
